<?xml version="1.0" encoding="UTF-8"?>
<!DOCTYPE svg PUBLIC "-//W3C//DTD SVG 1.1//EN" "http://www.w3.org/Graphics/SVG/1.1/DTD/svg11.dtd">
<!-- Creator: CorelDRAW 2021.5 -->
<svg xmlns="http://www.w3.org/2000/svg" xml:space="preserve" width="1343px" height="440px" version="1.1" style="shape-rendering:geometricPrecision; text-rendering:geometricPrecision; image-rendering:optimizeQuality; fill-rule:evenodd; clip-rule:evenodd"
viewBox="0 0 1390.3 455.3"
 xmlns:xlink="http://www.w3.org/1999/xlink"
 xmlns:xodm="http://www.corel.com/coreldraw/odm/2003">
 <defs>
  <style type="text/css">
   <![CDATA[
    .fil3 {fill:#1C1B17;fill-rule:nonzero}
    .fil2 {fill:url(#id0)}
    .fil1 {fill:url(#id1)}
    .fil0 {fill:url(#id2);fill-rule:nonzero}
   ]]>
  </style>
  <linearGradient id="id0" gradientUnits="userSpaceOnUse" x1="939.14" y1="60.92" x2="1013.52" y2="61.14">
   <stop offset="0" style="stop-opacity:1; stop-color:#CA6673"/>
   <stop offset="0.529412" style="stop-opacity:1; stop-color:#9177C7"/>
   <stop offset="1" style="stop-opacity:1; stop-color:#4796E3"/>
  </linearGradient>
  <linearGradient id="id1" gradientUnits="userSpaceOnUse" xlink:href="#id0" x1="965.06" y1="161.9" x2="1136.18" y2="162.42">
  </linearGradient>
  <linearGradient id="id2" gradientUnits="userSpaceOnUse" x1="1359.39" y1="431.75" x2="10.41" y2="431.75">
   <stop offset="0" style="stop-opacity:1; stop-color:#CA6673"/>
   <stop offset="0.631373" style="stop-opacity:1; stop-color:#9177C7"/>
   <stop offset="1" style="stop-opacity:1; stop-color:#4796E3"/>
  </linearGradient>
 </defs>
 <g id="Layer_x0020_1">
  <metadata id="CorelCorpID_0Corel-Layer"/>
  <path class="fil0" d="M0 340.53l0 -214.21 101.75 0c15.87,0 29.5,2.78 40.91,8.33 11.4,5.55 20.23,13.29 26.48,23.21 6.25,9.91 9.37,21.52 9.37,34.8 0,13.29 -3.17,25 -9.52,35.11 -6.35,10.12 -15.22,18 -26.63,23.65 -11.4,5.66 -24.94,8.48 -40.61,8.48l-65.45 0 0 -35.1 63.07 0c10.51,0 18.69,-2.93 24.55,-8.78 5.85,-5.85 8.77,-13.54 8.77,-23.06 0,-9.52 -2.92,-17.15 -8.77,-22.91 -5.86,-5.75 -14.04,-8.62 -24.55,-8.62l-53.55 0 0 179.1 -45.82 0zm302.58 2.98c-15.87,0 -30.5,-2.68 -43.89,-8.04 -13.39,-5.35 -24.99,-12.94 -34.81,-22.76 -9.82,-9.81 -17.45,-21.52 -22.91,-35.1 -5.45,-13.59 -8.18,-28.62 -8.18,-45.08 0,-21.82 4.66,-40.91 13.98,-57.27 9.33,-16.36 22.27,-29.11 38.83,-38.23 16.56,-9.12 35.46,-13.69 56.68,-13.69 21.62,0 40.66,4.57 57.12,13.69 16.46,9.12 29.41,21.92 38.83,38.38 9.42,16.46 14.13,35.6 14.13,57.42 0,16.26 -2.73,31.19 -8.18,44.78 -5.46,13.58 -13.09,25.29 -22.91,35.1 -9.82,9.82 -21.42,17.41 -34.81,22.76 -13.39,5.36 -28.02,8.04 -43.88,8.04zm-0.3 -36.3c12.49,0 23.5,-3.17 33.02,-9.52 9.52,-6.35 17.01,-15.12 22.47,-26.33 5.45,-11.21 8.18,-24.25 8.18,-39.12 0,-14.68 -2.68,-27.48 -8.04,-38.38 -5.35,-10.91 -12.79,-19.34 -22.31,-25.29 -9.52,-5.95 -20.63,-8.93 -33.32,-8.93 -12.5,0 -23.51,2.98 -33.03,8.93 -9.52,5.95 -16.91,14.33 -22.16,25.14 -5.26,10.81 -7.89,23.65 -7.89,38.53 0,15.07 2.68,28.21 8.04,39.42 5.35,11.2 12.79,19.93 22.31,26.18 9.52,6.25 20.43,9.37 32.73,9.37zm220.46 36c-27.77,0 -49.98,-6.2 -66.64,-18.6 -16.67,-12.39 -26.38,-29.9 -29.16,-52.51l44.03 0c1.39,11.51 6.94,20.58 16.66,27.23 9.72,6.64 22.12,9.96 37.19,9.96 12.3,0 21.77,-2.18 28.41,-6.54 6.65,-4.37 9.97,-10.22 9.97,-17.56 0,-6.94 -1.98,-12.54 -5.95,-16.81 -3.97,-4.26 -10.81,-7.68 -20.53,-10.26l-39.87 -11.01c-20.42,-5.75 -35.35,-13.64 -44.77,-23.65 -9.42,-10.02 -14.13,-22.56 -14.13,-37.64 0,-12.89 3.32,-24.05 9.96,-33.47 6.65,-9.42 16.02,-16.66 28.12,-21.72 12.1,-5.05 26.28,-7.58 42.54,-7.58 25,0 44.93,5.9 59.81,17.7 14.87,11.8 23.3,27.42 25.28,46.86l-44.03 0c-1.98,-10.52 -6.79,-18.25 -14.43,-23.21 -7.63,-4.96 -17.4,-7.44 -29.3,-7.44 -10.32,0 -18.55,1.99 -24.7,5.95 -6.15,3.97 -9.22,9.33 -9.22,16.07 0,5.16 1.68,9.87 5.06,14.13 3.37,4.27 10.41,7.89 21.12,10.86l39.87 11.01c21.02,5.75 36.15,13.64 45.37,23.65 9.22,10.02 13.83,22.66 13.83,37.94 0,21.42 -7.43,37.88 -22.31,49.38 -14.88,11.51 -35.6,17.26 -62.18,17.26zm162.44 -2.68l0 -179.1 -69.91 0 0 -35.11 185.65 0 0 35.11 -69.92 0 0 179.1 -45.82 0zm108.6 0l0 -151.73 43.73 0 0 35.7 0.89 0 0 116.03 -44.62 0zm44.62 -79.14l-3.86 -36c3.57,-12.89 9.42,-22.71 17.55,-29.45 8.13,-6.75 18.25,-10.12 30.35,-10.12 3.77,0 6.54,0.4 8.33,1.19l0 41.65c-0.99,-0.39 -2.38,-0.64 -4.17,-0.74 -1.78,-0.1 -3.96,-0.15 -6.54,-0.15 -14.28,0 -24.8,2.53 -31.54,7.59 -6.74,5.06 -10.12,13.73 -10.12,26.03zm163.64 79.14c-1.19,-4.36 -2.03,-9.02 -2.53,-13.98 -0.49,-4.96 -0.74,-10.71 -0.74,-17.26l-1.19 0 0 -71.7c0,-6.15 -2.04,-10.96 -6.1,-14.43 -4.07,-3.47 -10.07,-5.21 -18,-5.21 -7.54,0 -13.54,1.29 -18,3.87 -4.46,2.58 -7.39,6.35 -8.78,11.31l-42.54 0c1.98,-13.69 9.02,-24.99 21.12,-33.92 12.1,-8.93 28.66,-13.39 49.69,-13.39 21.81,0 38.47,4.86 49.98,14.58 11.5,9.72 17.25,23.7 17.25,41.95l0 66.94c0,4.96 0.35,9.97 1.05,15.03 0.69,5.05 1.83,10.46 3.42,16.21l-44.63 0zm-52.96 2.98c-15.07,0 -27.07,-3.82 -36,-11.46 -8.92,-7.63 -13.39,-17.8 -13.39,-30.49 0,-14.09 5.31,-25.44 15.92,-34.07 10.61,-8.63 25.44,-14.23 44.48,-16.81l44.33 -6.25 0 25.89 -36.89 5.65c-7.94,1.19 -13.79,3.37 -17.56,6.55 -3.76,3.17 -5.65,7.53 -5.65,13.09 0,4.96 1.79,8.72 5.36,11.3 3.57,2.58 8.33,3.87 14.28,3.87 9.32,0 17.25,-2.53 23.8,-7.59 6.55,-5.05 9.82,-10.96 9.82,-17.7l4.16 23.8c-4.36,11.31 -11.01,19.84 -19.93,25.59 -8.93,5.75 -19.84,8.63 -32.73,8.63zm192.5 0c-15.87,0 -29.85,-3.38 -41.95,-10.12 -12.1,-6.74 -21.57,-16.07 -28.42,-27.97 -6.84,-11.9 -10.26,-25.48 -10.26,-40.76 0,-15.27 3.42,-28.85 10.26,-40.76 6.85,-11.9 16.32,-21.22 28.42,-27.96 12.1,-6.75 26.08,-10.12 41.95,-10.12 13.29,0 25.24,2.43 35.85,7.29 10.61,4.86 19.34,11.56 26.18,20.08 6.84,8.53 11.25,18.55 13.24,30.05l-43.14 0c-2.18,-7.34 -6.1,-12.89 -11.75,-16.66 -5.66,-3.77 -12.25,-5.65 -19.79,-5.65 -7.14,0 -13.34,1.78 -18.59,5.35 -5.26,3.58 -9.28,8.63 -12.05,15.18 -2.78,6.54 -4.17,14.28 -4.17,23.2 0,8.93 1.39,16.67 4.17,23.21 2.77,6.55 6.79,11.6 12.05,15.17 5.25,3.57 11.45,5.36 18.59,5.36 7.54,0 14.13,-1.89 19.79,-5.65 5.65,-3.77 9.57,-9.32 11.75,-16.66l43.14 0c-1.99,11.5 -6.4,21.52 -13.24,30.05 -6.84,8.52 -15.57,15.22 -26.18,20.08 -10.61,4.86 -22.56,7.29 -35.85,7.29zm98.48 -2.98l0 -214.21 44.62 0 0 214.21 -44.62 0zm97.28 0l-63.07 -78.84 61.59 -72.89 51.47 0 -72.3 79.73 2.08 -13.98 73.19 85.98 -52.96 0z"/>
  <path class="fil1" d="M1056.96 21.75c-25.45,82.82 -9.36,66.73 -92.18,92.17 82.82,25.41 66.73,9.33 92.18,92.15 25.41,-82.82 9.32,-66.71 92.14,-92.15 -82.82,-25.44 -66.7,-9.35 -92.14,-92.17z"/>
  <path class="fil2" d="M979.08 0c11.06,36 4.06,29 40.06,40.06 -36,11.06 -29,4.06 -40.06,40.06 -11.06,-36 -4.06,-29 -40.06,-40.06 36,-11.06 29,-4.06 40.06,-40.06z"/>
  <path class="fil3" d="M196.85 454.52l20.57 -55.89 8.69 0 -19.33 55.89 -9.93 0zm42.15 0l-19.25 -55.89 9.16 0 20.49 55.89 -10.4 0zm-31.52 -21.97l30.59 0 0 8.08 -30.59 0 0 -8.08zm55.62 21.97l0 -55.89 10.1 0 0 55.89 -10.1 0zm41.42 0l0 -55.89 25.07 0c4.09,0 7.6,0.7 10.52,2.1 2.93,1.39 5.18,3.36 6.75,5.9 1.58,2.53 2.37,5.53 2.37,9 0,3.42 -0.8,6.42 -2.4,9.01 -1.61,2.58 -3.86,4.59 -6.76,6.01 -2.9,1.43 -6.39,2.14 -10.48,2.14l-17.23 0 0 -7.92 16.77 0c3.21,0 5.68,-0.83 7.41,-2.48 1.73,-1.66 2.6,-3.91 2.6,-6.76 0,-2.79 -0.87,-4.99 -2.6,-6.6 -1.73,-1.6 -4.2,-2.4 -7.41,-2.4l-14.52 0 0 47.89 -10.09 0zm74.79 0.78c-4.19,0 -7.88,-0.88 -11.06,-2.64 -3.18,-1.76 -5.65,-4.21 -7.41,-7.34 -1.76,-3.13 -2.64,-6.71 -2.64,-10.75 0,-4.03 0.88,-7.58 2.64,-10.63 1.76,-3.06 4.23,-5.45 7.41,-7.18 3.18,-1.74 6.87,-2.6 11.06,-2.6 4.25,0 7.95,0.86 11.1,2.6 3.16,1.73 5.62,4.12 7.38,7.18 1.76,3.05 2.64,6.6 2.64,10.63 0,4.04 -0.9,7.62 -2.68,10.75 -1.79,3.13 -4.26,5.58 -7.41,7.34 -3.16,1.76 -6.83,2.64 -11.03,2.64zm0 -7.84c2.07,0 3.94,-0.53 5.59,-1.59 1.66,-1.06 2.95,-2.56 3.88,-4.5 0.94,-1.95 1.4,-4.24 1.4,-6.88 0,-3.88 -1.02,-6.93 -3.07,-9.15 -2.04,-2.23 -4.64,-3.34 -7.8,-3.34 -3.15,0 -5.77,1.11 -7.84,3.34 -2.07,2.22 -3.1,5.27 -3.1,9.15 0,2.64 0.48,4.93 1.44,6.88 0.95,1.94 2.25,3.44 3.88,4.5 1.63,1.06 3.5,1.59 5.62,1.59zm34.98 7.06l0 -39.59 9.78 0 0 39.59 -9.78 0zm-0.47 -46.11l0 -10.79 10.64 0 0 10.79 -10.64 0zm27.37 46.11l0 -39.59 9.54 0 0 9.32 0.24 0 0 30.27 -9.78 0zm27.79 0l0 -24.99c0,-2.44 -0.62,-4.27 -1.87,-5.51 -1.24,-1.25 -3.05,-1.87 -5.43,-1.87 -2.07,0 -3.92,0.47 -5.55,1.4 -1.63,0.93 -2.9,2.23 -3.8,3.88 -0.91,1.66 -1.36,3.57 -1.36,5.74l-1.01 -9.47c1.34,-2.89 3.31,-5.21 5.9,-6.94 2.58,-1.74 5.69,-2.6 9.31,-2.6 4.3,0 7.65,1.21 10.05,3.65 2.41,2.43 3.61,5.66 3.61,9.7l0 27.01 -9.85 0zm42.73 0.78c-4.86,0 -8.45,-1.15 -10.75,-3.46 -2.3,-2.3 -3.45,-5.75 -3.45,-10.36l0 -35.55 9.85 -3.65 0 39.43c0,1.92 0.52,3.34 1.56,4.27 1.03,0.93 2.66,1.4 4.89,1.4 0.88,0 1.67,-0.06 2.36,-0.19 0.7,-0.13 1.36,-0.3 1.98,-0.51l0 7.61c-0.62,0.31 -1.5,0.56 -2.63,0.74 -1.14,0.18 -2.41,0.27 -3.81,0.27zm-21.81 -32.68l0 -7.69 28.25 0 0 7.69 -28.25 0zm75.26 32.68c-4.19,0 -7.88,-0.88 -11.06,-2.64 -3.19,-1.76 -5.66,-4.21 -7.42,-7.34 -1.76,-3.13 -2.63,-6.71 -2.63,-10.75 0,-4.03 0.87,-7.58 2.63,-10.63 1.76,-3.06 4.23,-5.45 7.42,-7.18 3.18,-1.74 6.87,-2.6 11.06,-2.6 4.24,0 7.94,0.86 11.1,2.6 3.16,1.73 5.61,4.12 7.37,7.18 1.76,3.05 2.64,6.6 2.64,10.63 0,4.04 -0.89,7.62 -2.68,10.75 -1.78,3.13 -4.25,5.58 -7.41,7.34 -3.16,1.76 -6.83,2.64 -11.02,2.64zm0 -7.84c2.07,0 3.93,-0.53 5.59,-1.59 1.65,-1.06 2.95,-2.56 3.88,-4.5 0.93,-1.95 1.4,-4.24 1.4,-6.88 0,-3.88 -1.03,-6.93 -3.07,-9.15 -2.04,-2.23 -4.64,-3.34 -7.8,-3.34 -3.16,0 -5.77,1.11 -7.84,3.34 -2.07,2.22 -3.11,5.27 -3.11,9.15 0,2.64 0.48,4.93 1.44,6.88 0.96,1.94 2.25,3.44 3.88,4.5 1.63,1.06 3.51,1.59 5.63,1.59zm37.53 7.06l0 -43.24c0,-4.34 1.21,-7.67 3.61,-9.97 2.41,-2.3 6.02,-3.45 10.83,-3.45 1.09,0 1.99,0.05 2.72,0.15 0.72,0.11 1.42,0.26 2.1,0.47l0 7.6c-0.37,-0.15 -0.83,-0.27 -1.4,-0.35 -0.57,-0.07 -1.22,-0.11 -1.94,-0.11 -2.07,0 -3.61,0.5 -4.62,1.51 -1.01,1.01 -1.52,2.47 -1.52,4.39l0 43 -9.78 0zm-7.14 -31.9l0 -7.69 25.54 0 0 7.69 -25.54 0zm75.73 32.6c-7.04,0 -12.64,-1.62 -16.81,-4.85 -4.16,-3.24 -6.61,-7.8 -7.33,-13.7l9.7 0c0.47,3.41 1.99,6.07 4.58,7.96 2.59,1.88 5.98,2.83 10.17,2.83 3.47,0 6.12,-0.64 7.95,-1.9 1.84,-1.27 2.76,-3.04 2.76,-5.32 0,-2.02 -0.57,-3.65 -1.71,-4.89 -1.14,-1.24 -3.05,-2.25 -5.74,-3.03l-10.09 -3.03c-5.12,-1.55 -8.89,-3.59 -11.3,-6.13 -2.4,-2.53 -3.61,-5.72 -3.61,-9.55 0,-3.2 0.83,-6 2.49,-8.38 1.65,-2.38 4,-4.22 7.02,-5.51 3.03,-1.29 6.56,-1.94 10.6,-1.94 6.21,0 11.16,1.51 14.86,4.54 3.7,3.03 5.81,7.13 6.33,12.3l-9.7 0c-0.57,-3.1 -1.87,-5.39 -3.88,-6.87 -2.02,-1.47 -4.74,-2.21 -8.15,-2.21 -3.01,0 -5.39,0.6 -7.15,1.79 -1.76,1.19 -2.63,2.82 -2.63,4.89 0,1.7 0.52,3.15 1.59,4.34 1.06,1.19 3.04,2.23 5.93,3.11l10.25 3.1c5.12,1.5 8.85,3.55 11.18,6.14 2.33,2.58 3.49,5.87 3.49,9.85 0,5.28 -1.82,9.35 -5.47,12.19 -3.65,2.85 -8.76,4.27 -15.33,4.27zm59.5 -0.7c-0.26,-1.03 -0.45,-2.17 -0.58,-3.41 -0.13,-1.25 -0.2,-2.75 -0.2,-4.51l-0.31 0 0 -18.78c0,-2.07 -0.58,-3.64 -1.74,-4.7 -1.17,-1.06 -2.94,-1.59 -5.32,-1.59 -2.33,0 -4.18,0.43 -5.55,1.28 -1.37,0.86 -2.21,2.09 -2.52,3.69l-9.4 0c0.42,-3.67 2.18,-6.65 5.28,-8.93 3.11,-2.27 7.27,-3.41 12.5,-3.41 5.43,0 9.55,1.23 12.34,3.68 2.8,2.46 4.19,6.07 4.19,10.83l0 17.93c0,1.25 0.09,2.51 0.28,3.81 0.18,1.29 0.45,2.66 0.81,4.11l-9.78 0zm-13.74 0.78c-3.98,0 -7.15,-1 -9.51,-2.99 -2.35,-1.99 -3.53,-4.67 -3.53,-8.03 0,-3.63 1.32,-6.5 3.96,-8.62 2.64,-2.12 6.36,-3.55 11.18,-4.27l12.34 -1.86 0 6.21 -10.71 1.63c-2.33,0.36 -4.08,1.01 -5.24,1.94 -1.17,0.93 -1.75,2.22 -1.75,3.88 0,1.5 0.54,2.65 1.63,3.45 1.09,0.81 2.59,1.21 4.5,1.21 2.8,0 5.13,-0.7 6.99,-2.1 1.86,-1.4 2.79,-3.11 2.79,-5.12l1.09 5.97c-1.03,2.85 -2.73,5.01 -5.08,6.49 -2.36,1.47 -5.24,2.21 -8.66,2.21zm39.09 -0.78l0 -55.89 9.78 0 0 55.89 -9.78 0zm44.67 0.78c-4.19,0 -7.85,-0.88 -10.98,-2.64 -3.13,-1.76 -5.56,-4.19 -7.3,-7.3 -1.73,-3.1 -2.6,-6.67 -2.6,-10.71 0,-4.04 0.87,-7.59 2.6,-10.67 1.74,-3.08 4.16,-5.49 7.26,-7.22 3.11,-1.74 6.73,-2.6 10.87,-2.6 3.93,0 7.35,0.81 10.24,2.44 2.9,1.63 5.15,3.92 6.76,6.87 1.6,2.95 2.4,6.39 2.4,10.33 0,0.72 -0.02,1.39 -0.07,2.01 -0.06,0.62 -0.13,1.25 -0.24,1.87l-33.76 0 0 -6.83 26.23 0 -2.01 1.86c0,-3.73 -0.86,-6.52 -2.57,-8.38 -1.7,-1.87 -4.08,-2.8 -7.14,-2.8 -3.31,0 -5.94,1.14 -7.88,3.42 -1.94,2.27 -2.91,5.56 -2.91,9.86 0,4.24 0.97,7.49 2.91,9.74 1.94,2.25 4.7,3.37 8.27,3.37 2.07,0 3.88,-0.38 5.43,-1.16 1.56,-0.78 2.7,-1.97 3.42,-3.57l9.24 0c-1.3,3.72 -3.48,6.67 -6.56,8.85 -3.08,2.17 -6.95,3.26 -11.61,3.26zm69.52 -0.08c-7.04,0 -12.64,-1.62 -16.81,-4.85 -4.16,-3.24 -6.61,-7.8 -7.33,-13.7l9.7 0c0.47,3.41 1.99,6.07 4.58,7.96 2.59,1.88 5.98,2.83 10.17,2.83 3.47,0 6.12,-0.64 7.96,-1.9 1.83,-1.27 2.75,-3.04 2.75,-5.32 0,-2.02 -0.57,-3.65 -1.71,-4.89 -1.13,-1.24 -3.05,-2.25 -5.74,-3.03l-10.09 -3.03c-5.12,-1.55 -8.89,-3.59 -11.3,-6.13 -2.4,-2.53 -3.6,-5.72 -3.6,-9.55 0,-3.2 0.82,-6 2.48,-8.38 1.65,-2.38 4,-4.22 7.02,-5.51 3.03,-1.29 6.56,-1.94 10.6,-1.94 6.21,0 11.16,1.51 14.86,4.54 3.7,3.03 5.81,7.13 6.33,12.3l-9.7 0c-0.57,-3.1 -1.86,-5.39 -3.88,-6.87 -2.02,-1.47 -4.74,-2.21 -8.15,-2.21 -3.01,0 -5.39,0.6 -7.14,1.79 -1.76,1.19 -2.64,2.82 -2.64,4.89 0,1.7 0.53,3.15 1.59,4.34 1.06,1.19 3.04,2.23 5.94,3.11l10.24 3.1c5.12,1.5 8.85,3.55 11.18,6.14 2.33,2.58 3.49,5.87 3.49,9.85 0,5.28 -1.82,9.35 -5.47,12.19 -3.65,2.85 -8.76,4.27 -15.33,4.27zm52.75 0.08c-4.19,0 -7.88,-0.88 -11.06,-2.64 -3.19,-1.76 -5.66,-4.21 -7.42,-7.34 -1.76,-3.13 -2.63,-6.71 -2.63,-10.75 0,-4.03 0.87,-7.58 2.63,-10.63 1.76,-3.06 4.23,-5.45 7.42,-7.18 3.18,-1.74 6.87,-2.6 11.06,-2.6 4.24,0 7.94,0.86 11.1,2.6 3.16,1.73 5.61,4.12 7.37,7.18 1.76,3.05 2.64,6.6 2.64,10.63 0,4.04 -0.89,7.62 -2.68,10.75 -1.78,3.13 -4.25,5.58 -7.41,7.34 -3.16,1.76 -6.83,2.64 -11.02,2.64zm0 -7.84c2.07,0 3.93,-0.53 5.59,-1.59 1.65,-1.06 2.95,-2.56 3.88,-4.5 0.93,-1.95 1.4,-4.24 1.4,-6.88 0,-3.88 -1.03,-6.93 -3.07,-9.15 -2.04,-2.23 -4.64,-3.34 -7.8,-3.34 -3.16,0 -5.77,1.11 -7.84,3.34 -2.07,2.22 -3.11,5.27 -3.11,9.15 0,2.64 0.48,4.93 1.44,6.88 0.96,1.94 2.25,3.44 3.88,4.5 1.63,1.06 3.51,1.59 5.63,1.59zm35.05 7.06l0 -55.89 9.78 0 0 55.89 -9.78 0zm39.71 0.78c-2.75,0 -5.11,-0.58 -7.11,-1.75 -1.99,-1.16 -3.51,-2.75 -4.58,-4.77 -1.06,-2.02 -1.59,-4.3 -1.59,-6.83l0 -27.02 9.78 0 0 25c0,2.43 0.61,4.27 1.83,5.51 1.21,1.24 2.93,1.86 5.16,1.86 2.02,0 3.79,-0.46 5.32,-1.39 1.52,-0.94 2.74,-2.24 3.65,-3.92 0.9,-1.69 1.35,-3.59 1.35,-5.71l1.01 9.47c-1.29,2.9 -3.22,5.21 -5.78,6.95 -2.56,1.73 -5.58,2.6 -9.04,2.6zm14.12 -0.78l0 -9.31 -0.31 0 0 -30.28 9.86 0 0 39.59 -9.55 0zm43.83 0.78c-4.87,0 -8.45,-1.15 -10.76,-3.46 -2.3,-2.3 -3.45,-5.75 -3.45,-10.36l0 -35.55 9.86 -3.65 0 39.43c0,1.92 0.52,3.34 1.55,4.27 1.04,0.93 2.67,1.4 4.89,1.4 0.88,0 1.67,-0.06 2.37,-0.19 0.7,-0.13 1.36,-0.3 1.98,-0.51l0 7.61c-0.62,0.31 -1.5,0.56 -2.64,0.74 -1.14,0.18 -2.41,0.27 -3.8,0.27zm-21.82 -32.68l0 -7.69 28.26 0 0 7.69 -28.26 0zm42.04 31.9l0 -39.59 9.78 0 0 39.59 -9.78 0zm-0.46 -46.11l0 -10.79 10.63 0 0 10.79 -10.63 0zm45.21 46.89c-4.19,0 -7.88,-0.88 -11.06,-2.64 -3.18,-1.76 -5.65,-4.21 -7.41,-7.34 -1.76,-3.13 -2.64,-6.71 -2.64,-10.75 0,-4.03 0.88,-7.58 2.64,-10.63 1.76,-3.06 4.23,-5.45 7.41,-7.18 3.18,-1.74 6.87,-2.6 11.06,-2.6 4.25,0 7.95,0.86 11.1,2.6 3.16,1.73 5.62,4.12 7.38,7.18 1.76,3.05 2.64,6.6 2.64,10.63 0,4.04 -0.9,7.62 -2.68,10.75 -1.79,3.13 -4.26,5.58 -7.41,7.34 -3.16,1.76 -6.83,2.64 -11.03,2.64zm0 -7.84c2.07,0 3.94,-0.53 5.59,-1.59 1.66,-1.06 2.95,-2.56 3.88,-4.5 0.94,-1.95 1.4,-4.24 1.4,-6.88 0,-3.88 -1.02,-6.93 -3.07,-9.15 -2.04,-2.23 -4.64,-3.34 -7.8,-3.34 -3.15,0 -5.77,1.11 -7.84,3.34 -2.07,2.22 -3.1,5.27 -3.1,9.15 0,2.64 0.48,4.93 1.44,6.88 0.95,1.94 2.25,3.44 3.88,4.5 1.63,1.06 3.5,1.59 5.62,1.59zm35.06 7.06l0 -39.59 9.54 0 0 9.32 0.24 0 0 30.27 -9.78 0zm27.78 0l0 -24.99c0,-2.44 -0.62,-4.27 -1.86,-5.51 -1.24,-1.25 -3.05,-1.87 -5.43,-1.87 -2.07,0 -3.92,0.47 -5.55,1.4 -1.63,0.93 -2.9,2.23 -3.81,3.88 -0.9,1.66 -1.35,3.57 -1.35,5.74l-1.01 -9.47c1.34,-2.89 3.31,-5.21 5.9,-6.94 2.58,-1.74 5.69,-2.6 9.31,-2.6 4.3,0 7.65,1.21 10.05,3.65 2.41,2.43 3.61,5.66 3.61,9.7l0 27.01 -9.86 0z"/>
 </g>
</svg>
